<svg xmlns="http://www.w3.org/2000/svg" width="126" height="40" fill="none"><g clip-path="url(#a)"><path fill="#000" d="M14.313 0h9.247v6.607L32.012 0h10.251L33.31 6.994 43.952 18.82H32.854l-6.058-6.738-3.236 2.556v4.182h-9.247zM62.66 9.153 53.502 0h-7.92v18.819h9.029v-8.04l8.05 8.04 8.045-8.024v8.024h9.027V0h-7.92zM83.053 0h27.961v4.025H92.321v3.2h15.363v4.024H92.321v7.57h-9.268z"/><mask id="b" width="126" height="19" x="0" y="21" maskUnits="userSpaceOnUse" style="mask-type:luminance"><path fill="#fff" d="m93.246 25.578-2.415 7.475h-.042l-2.64-7.475h-2.942l4.181 10.491-1.646 3.92h2.765l5.463-14.422zm29.336 0-2.415 7.475h-.042l-2.639-7.475h-2.943l4.182 10.502-1.631 3.92h2.765l5.462-14.422zM4.856 28.625c0 1.85 1.485 2.457 2.802 2.948 1.098.408 2.091.732 2.091 1.569 0 .935-.915 1.197-1.746 1.197a7.6 7.6 0 0 1-3.068-.774v2.196a8.4 8.4 0 0 0 3.33.522c2.09 0 4.265-.83 4.265-3.35 0-2.295-1.97-2.802-3.455-3.31-.873-.303-1.568-.627-1.568-1.322s.893-1.045 1.808-1.045a6.8 6.8 0 0 1 2.661.669v-2.091a8.8 8.8 0 0 0-3.048-.523c-2.054 0-4.061.993-4.061 3.293m25.128-1.338c1.568 0 2.415 1.119 2.415 2.562h-4.966c.1-1.323.936-2.562 2.54-2.562m-5.321 3.492c0 3.33 2.274 5.546 5.828 5.546a10 10 0 0 0 3.66-.669v-2.18a7.3 7.3 0 0 1-3.31.858c-1.85 0-3.293-.973-3.392-2.76h7.533v-.675c0-3.047-1.464-5.546-5.019-5.546-3.068 0-5.3 2.216-5.3 5.426M39.3 27.203h-.042v-1.625h-2.51v10.491h2.745v-6.796a3.14 3.14 0 0 1 2.802-1.604 4 4 0 0 1 1.239.203v-2.399a5.6 5.6 0 0 0-1.218-.141 3.32 3.32 0 0 0-3.027 1.85m25.698 5.667c0-1.485 1.668-1.809 2.744-1.809.542.039 1.08.128 1.605.267v1.746a4.13 4.13 0 0 1-2.614 1.28c-.893 0-1.745-.522-1.745-1.484m-1.402-6.56v2.033a5.84 5.84 0 0 1 3.273-1.014c1.422 0 2.457.611 2.457 1.97v.466a7 7 0 0 0-1.971-.324c-1.688 0-5.018.522-5.018 3.575 0 2.133 1.625 3.294 3.858 3.294a4 4 0 0 0 3.293-1.788h.057v1.568h2.4v-6.43c0-3.026-1.746-4.307-4.553-4.307a8.7 8.7 0 0 0-3.78.972m13.226.711h-.042v-1.437H74.05v10.491h2.724v-6.796a3.01 3.01 0 0 1 2.613-1.709c1.344 0 1.971.873 1.971 3.048v5.457h2.724v-6.55c0-2.436-1.182-4.182-3.942-4.182a4.21 4.21 0 0 0-3.314 1.689m29.561.224h-.063a3.135 3.135 0 0 0-3.089-1.908 4.19 4.19 0 0 0-3.513 1.81h-.042v-1.57h-2.499V36.07h2.724v-7a2.8 2.8 0 0 1 2.357-1.484c1.302 0 1.689 1.119 1.689 2.378v6.106h2.687v-6.837c.444-.774 1.176-1.647 2.357-1.647 1.302 0 1.689 1.119 1.689 2.378v6.106h2.749v-6.796c0-2.195-.852-3.92-3.659-3.92a3.88 3.88 0 0 0-3.413 1.908M0 36.069h2.844V21.594H0zm14.182-14.475V36.07h2.723v-5.578h.042l4.12 5.578h3.35l-4.705-5.687 4.245-4.794h-3.136l-3.879 4.73H16.9v-8.724zm36.383 0V36.07h2.723v-6.796a3.01 3.01 0 0 1 2.614-1.709c1.343 0 1.97.873 1.97 3.048v5.457h2.724v-6.55c0-2.436-1.176-4.182-3.941-4.182a4.2 4.2 0 0 0-3.336 1.683h-.041v-5.426z"/></mask><g mask="url(#b)"><path fill="url(#c)" d="M125.321 21.594H0V40h125.321z"/></g></g><defs><linearGradient id="c" x1="-.728" x2="124.593" y1="31.793" y2="31.793" gradientUnits="userSpaceOnUse"><stop stop-color="#0F1177"/><stop offset=".01" stop-color="#0F1177"/><stop offset=".11" stop-color="#1A1077"/><stop offset=".27" stop-color="#390F78"/><stop offset=".5" stop-color="#6A0C7A"/><stop offset=".76" stop-color="#AD087D"/><stop offset="1" stop-color="#F0047F"/></linearGradient><clipPath id="a"><path fill="#fff" d="M0 0h125.321v40H0z"/></clipPath></defs></svg>