<svg xmlns="http://www.w3.org/2000/svg" width="105" height="64" fill="none"><g clip-path="url(#a)"><path fill="#624A9D" fill-rule="evenodd" d="M40.465 50.645c6.534-9.172 5.384-16.145 1.537-24.81 4.381-1.91 2.533-7.742 2.354-18.03-.037-2.063-.184-1.526-1.177-.6-.763.714-1.413 1.582-1.766 2.817-.295 1.035.429 3.952.866 4.868-2.743-.637-6.471-2.035-7.303 3.282 0 .72.342 1.801.627 2.301 1.619 2.865 4.754 1.467 5.215 1.359-.635-.969-2.083-1.461-1.095-2.92 1.076-1.592 5.033.669 1.408 3.58a34 34 0 0 1-2.498 1.854c.39 1.84 1.75 3.683 2.172 5.483-.764-.602-1.167-1.326-1.885-2.092-1.245-1.332-9.662-9.06-19.842-10.889-8.703-1.558-15.474-8.434-15.83-8.524-.01 2.472 1.504 6.745 2.667 8.64.666 1.085 1.34 2.577 2.001 3.47 1.953 2.627 6.115 5.7 9.188 7.232 2.237 1.116 5.697 2.55 8.395 2.548-.95 1.427-1.637 1.503-2.572 3.27-4.602 8.671 5.965 17 13.129 12.033 1.969-1.367 2.94-4.023 2.94-5.086 0-1.972-1.09-3.207-1.45-4.75l-.65.827c-.046.063-.1.158-.143.224-.224.35-.453.787-.682 1.137-2.506 3.812-6.2 1.256-6.2-.724 0-4.07 5.837-6.294 9.478-2.909.6.558 1.537 2.167 1.83 2.91 2.845 7.234-4.15 10.806-5.468 12.77 1.076 2.15 2.906 4.56 4.301 6.642l3.952 5.9c.316.407.279.355.379.455 0-2.704.574-5.3-.9-7.442-1.293-1.875-2.125-3.591-2.975-4.829" clip-rule="evenodd"/><path fill="#533D8D" d="M49.42 21.61h4.732v3.378l4.325-3.377h5.244l-4.58 3.575 5.443 6.044h-5.678l-3.099-3.44-1.655 1.297v2.148H49.42v-9.624m24.734 4.681-4.684-4.686H65.42v9.622h4.62v-4.109l4.117 4.104 4.118-4.104v4.11h4.62v-9.623h-4.052l-4.683 4.686zm10.433-4.686h14.305v2.06H89.33v1.637h7.859v2.06H89.33v3.866h-4.74v-9.623z"/><mask id="b" width="56" height="22" x="49" y="36" maskUnits="userSpaceOnUse" style="mask-type:luminance"><path fill="#fff" d="M101.746 54.965v2.96h-2.751v-2.997l-3.078-5.162h2.901l1.667 2.82 1.676-2.82h2.657l-3.078 5.197zm-8.683 2.96-.023-3.718-1.772 2.983h-1.211l-1.772-2.856v3.588H85.78v-8.159h2.261l2.657 4.347 2.587-4.347h2.262l.024 8.159h-2.507zm-10.709-2.96v2.96h-2.75v-2.997l-3.078-5.162h2.9l1.667 2.82 1.677-2.82h2.656l-3.077 5.197zm-6.176-5.196v8.158h-2.261l-3.099-3.707v3.707h-2.68v-8.158H70.4l3.098 3.706V49.77zm-12.63 4.754-.793-2.05-.793 2.05zm.757 1.982h-3.098l-.548 1.422h-2.795l3.567-8.158h2.703l3.567 8.158h-2.843l-.547-1.422zm18.436-16.95q0-.454-.279-.706-.28-.25-.84-.25H80.62v1.91h1.003q.56 0 .84-.25.28-.249.28-.705m-1.374 3.03h-.745v2.05H77.87v-8.158h3.928q1.13 0 1.969.374.838.371 1.292 1.071t.456 1.632q0 .874-.398 1.527a2.8 2.8 0 0 1-1.142 1.037l1.714 2.517h-2.938l-1.388-2.05zm-4.557-.024v2.074h-6.782v-8.158h6.632v2.074h-3.928v.956h3.449v1.982h-3.449v1.072zm-12.376-.63-.618.688v2.016h-2.704v-8.158h2.704v2.959l2.68-2.96h2.996l-3.262 3.589 3.425 4.568h-3.18l-2.04-2.704zm-7.937 2.891a8.6 8.6 0 0 1-1.974-.226q-.96-.229-1.58-.611l.885-2.004q.584.339 1.306.543t1.387.203q.572 0 .816-.111.245-.11.245-.332 0-.257-.321-.384-.321-.128-1.056-.28a12 12 0 0 1-1.574-.426 2.7 2.7 0 0 1-1.095-.745q-.466-.517-.466-1.403 0-.77.431-1.398.43-.629 1.288-.99.855-.36 2.08-.36.837 0 1.647.181.811.183 1.427.53L59.117 39q-1.201-.604-2.272-.605c-.714 0-1.061.171-1.061.513q0 .245.316.366.315.122 1.037.264.931.173 1.574.402a2.76 2.76 0 0 1 1.114.74q.473.513.471 1.398 0 .77-.432 1.393-.43.623-1.287.99-.856.365-2.08.365zm-7.12-8.343h2.75v8.159h-2.75zm8.039 13.292v8.158h-2.751v-3.006h-2.54v3.006h-2.751v-8.158h2.75v2.89h2.541v-2.89z"/></mask><g mask="url(#b)"><path fill="url(#c)" d="M104.823 36.29H49.376v21.634h55.447z"/></g><path fill="#FDFDFD" fill-rule="evenodd" d="M36.024 33.962c1.035 1.501 2.038 3.71 3.875 6.055V29.063a3 3 0 0 0-.24-.205l-3.638 5.104zM37.561 9.15c.619 1.39 1.782 3.37 2.114 4.729l.227-.437V6.773l-.235-.168c-.721 1.098-1.453 1.43-2.106 2.546" clip-rule="evenodd"/><mask id="d" width="43" height="57" x="3" y="6" maskUnits="userSpaceOnUse" style="mask-type:luminance"><path fill="#fff" d="M40.402 50.687c6.534-9.172 5.383-16.145 1.537-24.81 4.38-1.91 2.533-7.741 2.354-18.03-.037-2.063-.185-1.526-1.177-.6-.764.714-1.414 1.582-1.767 2.817-.294 1.035.43 3.952.867 4.868-2.744-.637-6.471-2.035-7.303 3.283 0 .718.342 1.8.626 2.3 1.62 2.865 4.755 1.467 5.215 1.359-.634-.97-2.082-1.461-1.095-2.92 1.077-1.593 5.034.669 1.409 3.58a34 34 0 0 1-2.498 1.854c.39 1.84 1.75 3.683 2.171 5.483-.763-.602-1.166-1.326-1.885-2.092-1.245-1.332-9.661-9.06-19.841-10.889-8.706-1.558-15.477-8.434-15.83-8.524-.01 2.472 1.504 6.745 2.667 8.64.666 1.085 1.34 2.577 2 3.47 1.954 2.627 6.116 5.697 9.189 7.232 2.237 1.116 5.696 2.55 8.395 2.548-.95 1.427-1.638 1.503-2.572 3.27-4.602 8.671 5.965 17 13.128 12.033 1.97-1.366 2.94-4.023 2.94-5.086 0-1.972-1.09-3.207-1.45-4.75q-.323.416-.65.827c-.045.063-.1.158-.142.224-.224.35-.453.787-.682 1.137-2.506 3.812-6.2 1.256-6.2-.724 0-4.07 5.837-6.294 9.478-2.909.6.558 1.537 2.167 1.83 2.91 2.845 7.233-4.15 10.806-5.469 12.77 1.077 2.15 2.907 4.56 4.302 6.642l3.951 5.9c.316.407.28.355.38.455 0-2.704.573-5.3-.9-7.442-1.293-1.875-2.125-3.591-2.976-4.829"/></mask><g mask="url(#d)"><path fill="url(#e)" d="M46.936 5.784H3.175v57.17h43.76z"/></g><mask id="f" width="42" height="57" x="3" y="6" maskUnits="userSpaceOnUse" style="mask-type:luminance"><path fill="#fff" d="M40.336 50.73c6.534-9.172 5.384-16.146 1.538-24.81 4.38-1.91 2.532-7.742 2.353-18.03-.037-2.064-.184-1.527-1.177-.6-.763.713-1.413 1.582-1.766 2.817-.295 1.034.429 3.951.866 4.867-2.743-.637-6.47-2.035-7.303 3.283 0 .719.342 1.8.627 2.3 1.619 2.865 4.754 1.467 5.215 1.36-.635-.97-2.083-1.462-1.095-2.92 1.076-1.593 5.033.668 1.408 3.58a34 34 0 0 1-2.498 1.853c.39 1.84 1.75 3.683 2.172 5.484-.764-.603-1.166-1.327-1.885-2.093-1.245-1.332-9.662-9.059-19.842-10.888-8.703-1.559-15.474-8.435-15.83-8.524-.01 2.471 1.504 6.744 2.667 8.64.667 1.084 1.34 2.577 2.001 3.47 1.954 2.627 6.116 5.699 9.188 7.23 2.237 1.117 5.697 2.552 8.395 2.55-.95 1.426-1.637 1.502-2.572 3.269-4.602 8.672 5.965 17 13.129 12.033 1.969-1.366 2.94-4.022 2.94-5.086 0-1.972-1.09-3.206-1.45-4.749q-.324.415-.65.827c-.045.063-.1.158-.143.223-.224.35-.453.788-.682 1.138-2.506 3.812-6.2 1.255-6.2-.724 0-4.07 5.837-6.295 9.478-2.91.6.559 1.537 2.167 1.83 2.91 2.845 7.234-4.15 10.806-5.468 12.77 1.076 2.151 2.906 4.56 4.301 6.642q1.975 2.95 3.952 5.9c.316.408.279.355.379.455 0-2.703.574-5.3-.9-7.442-1.293-1.874-2.125-3.59-2.975-4.828"/></mask><g mask="url(#f)"><path fill="url(#g)" d="M46.873 5.826H3.112v57.171h43.76z"/></g><mask id="h" width="42" height="58" x="3" y="6" maskUnits="userSpaceOnUse" style="mask-type:luminance"><path fill="#fff" d="M40.273 50.772c6.534-9.172 5.383-16.146 1.537-24.81 4.38-1.91 2.533-7.742 2.354-18.03-.037-2.064-.184-1.527-1.177-.6-.763.713-1.414 1.582-1.766 2.817-.295 1.034.429 3.951.866 4.867-2.743-.637-6.471-2.035-7.303 3.283 0 .719.342 1.8.627 2.3 1.618 2.865 4.754 1.467 5.215 1.36-.635-.97-2.083-1.462-1.095-2.92 1.076-1.593 5.033.668 1.408 3.58a34 34 0 0 1-2.498 1.853c.39 1.84 1.75 3.683 2.171 5.484-.763-.603-1.166-1.327-1.884-2.093-1.246-1.332-9.662-9.059-19.842-10.888C10.18 15.416 3.409 8.54 3.056 8.45c-.01 2.471 1.504 6.744 2.667 8.64.666 1.084 1.34 2.577 2.001 3.47 1.953 2.627 6.115 5.696 9.188 7.23 2.237 1.117 5.696 2.552 8.395 2.55-.95 1.426-1.638 1.502-2.572 3.269-4.602 8.672 5.965 17 13.128 12.033 1.97-1.366 2.94-4.022 2.94-5.086 0-1.972-1.089-3.206-1.45-4.749q-.322.415-.65.827c-.045.063-.1.158-.142.224-.224.35-.453.787-.682 1.137-2.506 3.812-6.2 1.255-6.2-.724 0-4.07 5.837-6.295 9.478-2.91.6.559 1.537 2.167 1.83 2.91 2.845 7.234-4.15 10.806-5.468 12.77 1.076 2.151 2.906 4.56 4.301 6.642q1.974 2.95 3.952 5.9c.313.408.279.355.379.455 0-2.703.573-5.3-.9-7.442-1.293-1.874-2.125-3.59-2.975-4.828"/></mask><g mask="url(#h)"><path fill="url(#i)" d="M46.807 5.868H3.046V63.04h43.76z"/></g><mask id="j" width="43" height="58" x="2" y="6" maskUnits="userSpaceOnUse" style="mask-type:luminance"><path fill="#fff" d="M40.207 50.814c6.534-9.172 5.383-16.146 1.537-24.81 4.38-1.91 2.533-7.742 2.354-18.03-.037-2.064-.184-1.527-1.177-.6-.763.713-1.414 1.582-1.766 2.817-.295 1.034.429 3.951.866 4.867-2.743-.637-6.471-2.035-7.303 3.283 0 .719.342 1.8.627 2.3 1.619 2.865 4.754 1.467 5.215 1.36-.635-.97-2.083-1.462-1.095-2.92 1.076-1.593 5.033.668 1.408 3.58a34 34 0 0 1-2.498 1.853c.39 1.84 1.75 3.683 2.172 5.484-.764-.603-1.167-1.327-1.885-2.093C37.416 26.573 29 18.846 18.82 17.017 10.117 15.456 3.346 8.579 2.99 8.493c-.01 2.471 1.504 6.744 2.667 8.64.666 1.084 1.34 2.577 2.001 3.47 1.953 2.627 6.116 5.699 9.188 7.23 2.237 1.117 5.697 2.552 8.395 2.55-.95 1.426-1.638 1.502-2.572 3.269-4.602 8.672 5.965 17 13.128 12.033 1.97-1.366 2.941-4.022 2.941-5.086 0-1.972-1.09-3.206-1.45-4.749q-.324.415-.65.827c-.046.063-.1.158-.143.223-.224.35-.453.788-.682 1.138-2.506 3.812-6.2 1.255-6.2-.724 0-4.07 5.837-6.295 9.478-2.91.6.559 1.537 2.167 1.83 2.91 2.845 7.234-4.15 10.806-5.468 12.77 1.076 2.151 2.906 4.56 4.301 6.642q1.974 2.95 3.952 5.9c.316.408.279.355.379.455 0-2.703.574-5.3-.9-7.442-1.293-1.874-2.125-3.59-2.975-4.828"/></mask><g mask="url(#j)"><path fill="url(#k)" d="M46.744 5.91H2.983v57.171h43.76z"/></g><mask id="l" width="43" height="58" x="2" y="6" maskUnits="userSpaceOnUse" style="mask-type:luminance"><path fill="#fff" d="M40.144 50.856c6.534-9.172 5.383-16.146 1.537-24.81 4.38-1.91 2.533-7.742 2.354-18.03-.037-2.064-.185-1.527-1.177-.6-.764.713-1.414 1.582-1.767 2.817-.294 1.034.43 3.951.867 4.867-2.744-.637-6.471-2.035-7.303 3.283 0 .719.342 1.8.626 2.3 1.62 2.865 4.755 1.467 5.215 1.36-.634-.97-2.082-1.462-1.095-2.92 1.077-1.593 5.034.668 1.409 3.58a34 34 0 0 1-2.499 1.853c.39 1.84 1.751 3.683 2.172 5.484-.763-.603-1.166-1.327-1.885-2.093-1.245-1.332-9.661-9.059-19.841-10.888C10.05 15.498 3.28 8.62 2.927 8.532c-.01 2.472 1.503 6.745 2.667 8.64.666 1.085 1.34 2.577 2 3.47 1.954 2.627 6.116 5.697 9.188 7.231 2.238 1.116 5.697 2.551 8.396 2.549-.95 1.426-1.638 1.503-2.572 3.27-4.602 8.67 5.965 17 13.128 12.033 1.97-1.367 2.94-4.023 2.94-5.087 0-1.971-1.09-3.206-1.45-4.749q-.323.416-.65.827c-.045.063-.1.158-.142.224-.224.35-.453.787-.682 1.137-2.506 3.812-6.2 1.256-6.2-.724 0-4.07 5.837-6.294 9.478-2.909.6.558 1.537 2.167 1.83 2.91 2.845 7.233-4.15 10.806-5.469 12.77 1.077 2.15 2.907 4.56 4.302 6.642l3.951 5.9c.314.407.28.355.38.455 0-2.704.573-5.3-.9-7.443-1.294-1.874-2.125-3.59-2.976-4.828"/></mask><g mask="url(#l)"><path fill="url(#m)" d="M46.678 5.95H2.917v57.17h43.76z"/></g><mask id="n" width="43" height="58" x="2" y="6" maskUnits="userSpaceOnUse" style="mask-type:luminance"><path fill="#fff" d="M40.078 50.895c6.534-9.172 5.384-16.145 1.537-24.81 4.381-1.91 2.533-7.742 2.354-18.03-.037-2.063-.184-1.526-1.177-.6-.763.714-1.413 1.582-1.766 2.817-.295 1.035.429 3.952.866 4.868-2.743-.637-6.471-2.035-7.303 3.282 0 .72.342 1.801.627 2.301 1.619 2.865 4.754 1.467 5.215 1.359-.635-.969-2.083-1.461-1.095-2.92 1.076-1.592 5.033.669 1.408 3.58a34 34 0 0 1-2.498 1.854c.39 1.84 1.75 3.683 2.172 5.483-.764-.602-1.167-1.326-1.885-2.092-1.245-1.332-9.662-9.06-19.842-10.889C9.988 15.54 3.217 8.664 2.861 8.574c-.01 2.472 1.504 6.745 2.667 8.64.666 1.085 1.34 2.577 2.001 3.47 1.954 2.627 6.116 5.7 9.188 7.232 2.237 1.116 5.697 2.55 8.395 2.548-.95 1.427-1.637 1.503-2.572 3.27-4.602 8.671 5.965 17 13.129 12.033 1.969-1.367 2.94-4.023 2.94-5.086 0-1.972-1.09-3.207-1.45-4.75q-.324.416-.65.827c-.045.063-.1.158-.143.224-.224.35-.453.787-.682 1.137-2.506 3.812-6.2 1.256-6.2-.724 0-4.07 5.837-6.294 9.478-2.909.6.558 1.537 2.167 1.83 2.91 2.845 7.234-4.15 10.806-5.468 12.77 1.076 2.15 2.906 4.56 4.301 6.642l3.952 5.9c.316.407.279.355.379.455 0-2.704.574-5.3-.9-7.442-1.293-1.875-2.125-3.591-2.975-4.829"/></mask><g mask="url(#n)"><path fill="url(#o)" d="M46.615 5.992H2.854v57.17h43.76z"/></g><mask id="p" width="43" height="58" x="2" y="6" maskUnits="userSpaceOnUse" style="mask-type:luminance"><path fill="#fff" d="M40.015 50.938c6.534-9.172 5.383-16.146 1.537-24.81 4.38-1.91 2.533-7.742 2.354-18.03-.037-2.064-.185-1.527-1.177-.6-.764.713-1.414 1.582-1.767 2.817-.294 1.034.43 3.951.867 4.867-2.743-.637-6.471-2.035-7.303 3.283 0 .719.342 1.8.627 2.3 1.619 2.865 4.754 1.467 5.215 1.36-.635-.97-2.083-1.462-1.096-2.92 1.077-1.593 5.034.668 1.409 3.58a34 34 0 0 1-2.498 1.853c.39 1.84 1.75 3.683 2.171 5.484-.763-.603-1.166-1.327-1.885-2.093-1.245-1.332-9.661-9.059-19.841-10.888C9.922 15.582 3.15 8.706 2.798 8.617c-.01 2.472 1.504 6.744 2.667 8.64.666 1.084 1.34 2.577 2 3.47 1.954 2.627 6.116 5.699 9.189 7.231 2.237 1.116 5.696 2.55 8.395 2.548-.95 1.427-1.638 1.504-2.572 3.27-4.602 8.671 5.965 17 13.128 12.033 1.97-1.366 2.94-4.022 2.94-5.086 0-1.972-1.089-3.206-1.45-4.749q-.323.416-.65.827c-.045.063-.1.158-.142.224-.224.35-.453.787-.682 1.137-2.506 3.812-6.2 1.255-6.2-.724 0-4.07 5.837-6.295 9.478-2.91.6.559 1.537 2.167 1.83 2.91 2.845 7.234-4.15 10.806-5.469 12.77 1.077 2.151 2.907 4.56 4.302 6.642q1.974 2.95 3.952 5.9c.315.408.278.355.379.455 0-2.703.573-5.3-.9-7.442-1.293-1.874-2.125-3.59-2.976-4.828"/></mask><g mask="url(#p)"><path fill="url(#q)" d="M46.549 6.034H2.788v57.171h43.76z"/></g><mask id="r" width="43" height="58" x="2" y="6" maskUnits="userSpaceOnUse" style="mask-type:luminance"><path fill="#fff" d="M39.949 50.98c6.534-9.172 5.384-16.146 1.537-24.81 4.38-1.91 2.533-7.742 2.354-18.03-.037-2.064-.184-1.527-1.177-.6-.763.713-1.414 1.582-1.766 2.817-.295 1.034.429 3.951.866 4.867-2.743-.637-6.471-2.035-7.303 3.283 0 .719.342 1.8.627 2.3 1.619 2.865 4.754 1.467 5.215 1.36-.635-.97-2.083-1.462-1.096-2.92 1.077-1.593 5.034.668 1.409 3.58a34 34 0 0 1-2.498 1.853c.39 1.84 1.75 3.683 2.172 5.484-.764-.603-1.167-1.327-1.885-2.093-1.246-1.332-9.662-9.059-19.842-10.888-8.703-1.559-15.474-8.435-15.83-8.524-.01 2.471 1.504 6.744 2.667 8.64.666 1.084 1.34 2.577 2.001 3.47 1.953 2.627 6.115 5.699 9.188 7.23 2.237 1.117 5.697 2.552 8.395 2.55-.95 1.426-1.638 1.502-2.572 3.269-4.602 8.672 5.965 17 13.128 12.033 1.97-1.366 2.94-4.022 2.94-5.086 0-1.972-1.089-3.206-1.45-4.749q-.323.415-.65.827c-.045.063-.1.158-.142.223-.224.35-.453.788-.682 1.138-2.506 3.812-6.2 1.255-6.2-.724 0-4.07 5.837-6.295 9.478-2.91.6.559 1.537 2.167 1.83 2.91 2.845 7.234-4.15 10.806-5.468 12.77 1.076 2.151 2.906 4.56 4.301 6.642q1.974 2.95 3.951 5.9c.316.408.28.355.38.455 0-2.703.574-5.3-.9-7.442-1.293-1.874-2.125-3.59-2.975-4.828"/></mask><g mask="url(#r)"><path fill="url(#s)" d="M46.486 6.076H2.724v57.171h43.76z"/></g><mask id="t" width="43" height="58" x="2" y="6" maskUnits="userSpaceOnUse" style="mask-type:luminance"><path fill="#fff" d="M39.886 51.022c6.534-9.172 5.383-16.146 1.537-24.81 4.38-1.91 2.533-7.742 2.354-18.03-.037-2.064-.184-1.527-1.177-.6-.763.713-1.414 1.582-1.766 2.817-.295 1.034.429 3.951.866 4.867-2.743-.637-6.471-2.035-7.303 3.283 0 .719.342 1.8.627 2.3 1.619 2.865 4.754 1.467 5.215 1.36-.635-.97-2.083-1.462-1.095-2.92 1.076-1.593 5.033.668 1.408 3.58a34 34 0 0 1-2.498 1.853c.39 1.84 1.75 3.683 2.171 5.484-.763-.603-1.166-1.327-1.884-2.093-1.246-1.332-9.662-9.059-19.842-10.888C9.793 15.666 3.022 8.79 2.669 8.7c-.01 2.471 1.504 6.744 2.667 8.64.666 1.084 1.34 2.577 2.001 3.47 1.953 2.627 6.115 5.699 9.188 7.23 2.237 1.117 5.697 2.552 8.395 2.55-.95 1.426-1.638 1.502-2.572 3.269-4.602 8.672 5.965 17 13.128 12.033 1.97-1.366 2.94-4.022 2.94-5.086 0-1.972-1.089-3.206-1.45-4.749q-.322.415-.65.827c-.045.063-.1.158-.142.224-.224.35-.453.787-.682 1.137-2.506 3.812-6.2 1.255-6.2-.724 0-4.07 5.837-6.295 9.478-2.91.6.559 1.537 2.167 1.83 2.91 2.845 7.234-4.15 10.806-5.468 12.77 1.076 2.151 2.906 4.56 4.301 6.642q1.974 2.95 3.952 5.9c.316.408.279.355.379.455 0-2.703.573-5.3-.9-7.442-1.293-1.874-2.125-3.59-2.975-4.828"/></mask><g mask="url(#t)"><path fill="url(#u)" d="M46.42 6.118H2.659V63.29h43.76z"/></g><mask id="v" width="43" height="58" x="2" y="6" maskUnits="userSpaceOnUse" style="mask-type:luminance"><path fill="#fff" d="M39.82 51.064c6.534-9.172 5.384-16.146 1.537-24.81 4.381-1.91 2.533-7.742 2.354-18.03-.037-2.064-.184-1.527-1.177-.6-.763.713-1.413 1.582-1.766 2.817-.295 1.034.429 3.951.866 4.867-2.743-.637-6.471-2.035-7.303 3.283 0 .719.342 1.8.627 2.3 1.619 2.865 4.754 1.467 5.215 1.36-.635-.97-2.083-1.462-1.095-2.92 1.076-1.593 5.033.668 1.408 3.58a34 34 0 0 1-2.498 1.853c.39 1.84 1.75 3.683 2.172 5.484-.764-.603-1.167-1.327-1.885-2.093-1.245-1.332-9.662-9.059-19.842-10.888C9.73 15.708 2.96 8.832 2.603 8.743c-.01 2.471 1.504 6.744 2.667 8.64.666 1.084 1.34 2.577 2.001 3.47 1.953 2.627 6.116 5.696 9.188 7.23 2.237 1.117 5.697 2.552 8.395 2.55-.95 1.426-1.637 1.502-2.572 3.269-4.602 8.672 5.965 17 13.128 12.033 1.97-1.366 2.941-4.022 2.941-5.086 0-1.972-1.09-3.206-1.45-4.749q-.324.415-.65.827c-.045.063-.1.158-.143.223-.224.35-.453.788-.682 1.138-2.506 3.812-6.2 1.255-6.2-.724 0-4.07 5.837-6.295 9.478-2.91.6.559 1.537 2.167 1.83 2.91 2.845 7.234-4.15 10.806-5.468 12.77 1.076 2.151 2.906 4.56 4.301 6.642q1.974 2.95 3.952 5.9c.316.408.279.355.379.455 0-2.703.574-5.3-.9-7.442-1.293-1.874-2.125-3.59-2.975-4.828"/></mask><g mask="url(#v)"><path fill="url(#w)" d="M46.357 6.16H2.596v57.171h43.76z"/></g><mask id="x" width="43" height="58" x="2" y="6" maskUnits="userSpaceOnUse" style="mask-type:luminance"><path fill="#fff" d="M39.757 51.106c6.534-9.172 5.383-16.145 1.537-24.81 4.38-1.91 2.533-7.742 2.354-18.03-.037-2.063-.185-1.526-1.177-.6-.763.714-1.414 1.582-1.766 2.817-.295 1.035.429 3.951.866 4.868-2.743-.637-6.471-2.035-7.303 3.282 0 .72.342 1.801.626 2.301 1.62 2.864 4.755 1.467 5.215 1.359-.634-.97-2.082-1.461-1.095-2.92 1.077-1.593 5.034.669 1.409 3.58a34 34 0 0 1-2.498 1.854c.39 1.84 1.75 3.683 2.171 5.483-.763-.602-1.166-1.326-1.885-2.092-1.245-1.333-9.661-9.06-19.841-10.889C9.664 15.751 2.893 8.872 2.54 8.785c-.01 2.472 1.504 6.745 2.667 8.64.666 1.085 1.34 2.577 2 3.47 1.954 2.627 6.116 5.7 9.188 7.231 2.238 1.117 5.697 2.551 8.396 2.549-.95 1.427-1.638 1.503-2.572 3.27-4.602 8.671 5.965 17 13.128 12.033 1.97-1.367 2.94-4.023 2.94-5.086 0-1.972-1.09-3.207-1.45-4.75q-.323.416-.65.827c-.045.063-.1.158-.142.224-.224.35-.453.787-.682 1.137-2.506 3.812-6.2 1.256-6.2-.724 0-4.07 5.837-6.294 9.478-2.909.6.558 1.537 2.167 1.83 2.91 2.845 7.233-4.15 10.806-5.469 12.77 1.077 2.15 2.907 4.56 4.302 6.642l3.951 5.9c.316.407.28.355.38.455 0-2.704.573-5.3-.9-7.443-1.293-1.874-2.125-3.59-2.976-4.828"/></mask><g mask="url(#x)"><path fill="url(#y)" d="M46.29 6.203H2.53v57.17h43.76z"/></g><mask id="z" width="43" height="58" x="2" y="6" maskUnits="userSpaceOnUse" style="mask-type:luminance"><path fill="#fff" d="M39.691 51.148c6.534-9.172 5.384-16.146 1.537-24.81 4.381-1.91 2.533-7.742 2.354-18.03-.037-2.063-.184-1.526-1.177-.6-.763.714-1.413 1.582-1.766 2.817-.295 1.035.429 3.951.866 4.868-2.743-.638-6.47-2.035-7.303 3.282 0 .72.342 1.801.627 2.301 1.619 2.864 4.754 1.467 5.215 1.359-.635-.97-2.082-1.461-1.095-2.92 1.076-1.592 5.033.669 1.408 3.58a34 34 0 0 1-2.498 1.854c.39 1.84 1.75 3.683 2.172 5.483-.764-.602-1.167-1.326-1.885-2.093-1.245-1.332-9.662-9.058-19.842-10.888-8.703-1.56-15.474-8.437-15.83-8.524-.01 2.472 1.504 6.745 2.667 8.64.666 1.085 1.34 2.577 2.001 3.47 1.954 2.627 6.116 5.697 9.188 7.231 2.238 1.117 5.697 2.551 8.395 2.549-.95 1.427-1.637 1.503-2.572 3.27-4.602 8.671 5.965 17 13.129 12.033 1.969-1.367 2.94-4.023 2.94-5.086 0-1.972-1.09-3.207-1.45-4.75q-.324.416-.65.827c-.045.063-.1.158-.143.224-.224.35-.453.787-.682 1.137-2.506 3.812-6.2 1.256-6.2-.724 0-4.07 5.837-6.294 9.478-2.909.6.558 1.537 2.167 1.83 2.91 2.845 7.233-4.15 10.806-5.468 12.77 1.076 2.15 2.906 4.56 4.301 6.642q1.974 2.95 3.952 5.9c.316.407.279.355.379.455 0-2.704.574-5.3-.9-7.443-1.293-1.874-2.125-3.59-2.975-4.828"/></mask><g mask="url(#z)"><path fill="url(#A)" d="M46.228 6.245H2.467v57.17h43.76z"/></g><mask id="B" width="43" height="58" x="2" y="6" maskUnits="userSpaceOnUse" style="mask-type:luminance"><path fill="#fff" d="M39.628 51.19c6.534-9.172 5.383-16.145 1.537-24.81 4.38-1.91 2.533-7.742 2.354-18.03-.037-2.064-.184-1.526-1.177-.6-.763.714-1.414 1.582-1.766 2.817-.295 1.035.429 3.951.866 4.868-2.743-.638-6.471-2.035-7.303 3.282 0 .72.342 1.801.627 2.301 1.619 2.864 4.754 1.467 5.215 1.359-.635-.97-2.083-1.461-1.096-2.92 1.077-1.593 5.034.669 1.409 3.58a34 34 0 0 1-2.498 1.854c.39 1.84 1.75 3.683 2.171 5.483-.763-.602-1.166-1.326-1.884-2.092-1.246-1.333-9.662-9.06-19.842-10.889-8.706-1.56-15.477-8.437-15.83-8.527-.01 2.472 1.504 6.745 2.667 8.64.666 1.085 1.34 2.578 2 3.47 1.954 2.627 6.116 5.7 9.189 7.232 2.237 1.116 5.696 2.55 8.395 2.548-.95 1.427-1.638 1.503-2.572 3.27-4.602 8.671 5.965 17 13.128 12.033 1.97-1.366 2.94-4.022 2.94-5.086 0-1.972-1.089-3.206-1.45-4.75q-.322.416-.65.828c-.045.063-.1.157-.142.223-.224.35-.453.787-.682 1.137-2.506 3.813-6.2 1.256-6.2-.723 0-4.07 5.837-6.295 9.478-2.91.6.559 1.537 2.167 1.83 2.91 2.845 7.234-4.15 10.806-5.469 12.77 1.077 2.15 2.907 4.56 4.302 6.642l3.952 5.9c.315.408.279.355.379.455 0-2.704.574-5.3-.9-7.442-1.293-1.875-2.125-3.591-2.976-4.828"/></mask><g mask="url(#B)"><path fill="url(#C)" d="M46.162 6.284H2.4v57.17h43.76z"/></g><mask id="D" width="43" height="58" x="2" y="6" maskUnits="userSpaceOnUse" style="mask-type:luminance"><path fill="#fff" d="M39.562 51.23c6.534-9.172 5.384-16.146 1.537-24.81 4.38-1.91 2.533-7.742 2.354-18.03-.037-2.064-.184-1.527-1.177-.6-.763.713-1.414 1.582-1.766 2.817-.295 1.034.429 3.951.866 4.867-2.743-.637-6.471-2.035-7.303 3.283 0 .719.342 1.8.627 2.3 1.619 2.865 4.754 1.467 5.215 1.36-.635-.97-2.083-1.462-1.096-2.92 1.077-1.593 5.034.668 1.409 3.58a34 34 0 0 1-2.498 1.853c.39 1.84 1.75 3.683 2.172 5.484-.764-.603-1.167-1.327-1.885-2.093-1.246-1.332-9.662-9.059-19.842-10.888-8.703-1.559-15.477-8.435-15.83-8.524-.01 2.471 1.504 6.744 2.667 8.64.666 1.084 1.34 2.577 2.001 3.47 1.953 2.627 6.116 5.696 9.188 7.23 2.237 1.117 5.697 2.552 8.395 2.55-.95 1.426-1.638 1.502-2.572 3.269-4.602 8.672 5.965 17 13.128 12.033 1.97-1.366 2.941-4.022 2.941-5.086 0-1.972-1.09-3.206-1.45-4.749q-.324.415-.65.827c-.046.063-.1.158-.143.223-.224.35-.453.788-.682 1.138-2.506 3.812-6.2 1.255-6.2-.724 0-4.07 5.837-6.295 9.478-2.91.6.559 1.537 2.167 1.83 2.91 2.845 7.234-4.15 10.806-5.469 12.77 1.077 2.151 2.907 4.56 4.302 6.642q1.974 2.95 3.952 5.9c.316.408.279.355.379.455 0-2.703.574-5.3-.9-7.442-1.293-1.874-2.125-3.59-2.975-4.828"/></mask><g mask="url(#D)"><path fill="url(#E)" d="M46.099 6.326H2.338v57.171h43.76z"/></g><mask id="F" width="43" height="57" x="2" y="7" maskUnits="userSpaceOnUse" style="mask-type:luminance"><path fill="#fff" d="M39.499 51.272c6.534-9.172 5.383-16.146 1.537-24.81 4.38-1.91 2.533-7.742 2.354-18.03-.037-2.064-.184-1.527-1.177-.6-.763.713-1.414 1.582-1.766 2.817-.295 1.034.429 3.951.866 4.867-2.743-.637-6.471-2.035-7.303 3.283 0 .719.342 1.8.627 2.3 1.619 2.865 4.754 1.467 5.215 1.36-.635-.97-2.083-1.462-1.095-2.92 1.076-1.593 5.033.668 1.408 3.58a34 34 0 0 1-2.498 1.853c.39 1.84 1.75 3.683 2.172 5.484-.764-.603-1.167-1.327-1.885-2.093-1.246-1.332-9.662-9.059-19.842-10.888C9.406 15.916 2.635 9.04 2.282 8.95c-.01 2.471 1.504 6.744 2.667 8.64.666 1.084 1.34 2.577 2.001 3.47 1.953 2.627 6.116 5.699 9.188 7.23 2.237 1.117 5.696 2.552 8.395 2.55-.95 1.426-1.638 1.502-2.572 3.269-4.602 8.672 5.965 17 13.128 12.033 1.97-1.366 2.941-4.022 2.941-5.086 0-1.972-1.09-3.206-1.45-4.749q-.324.415-.65.827c-.046.063-.1.158-.143.224-.224.35-.453.787-.682 1.137-2.506 3.812-6.2 1.255-6.2-.724 0-4.07 5.837-6.295 9.478-2.91.6.559 1.537 2.167 1.83 2.91 2.845 7.234-4.15 10.806-5.468 12.77 1.076 2.151 2.906 4.56 4.301 6.642q1.974 2.95 3.952 5.9c.316.408.279.355.379.455 0-2.703.574-5.3-.9-7.442-1.293-1.874-2.125-3.59-2.975-4.828"/></mask><g mask="url(#F)"><path fill="url(#G)" d="M46.033 6.368H2.272V63.54h43.76z"/></g><mask id="H" width="43" height="57" x="2" y="7" maskUnits="userSpaceOnUse" style="mask-type:luminance"><path fill="#fff" d="M39.433 51.314c6.534-9.172 5.384-16.146 1.537-24.81 4.381-1.91 2.533-7.742 2.354-18.03-.037-2.064-.184-1.527-1.177-.6-.763.713-1.413 1.582-1.766 2.817-.295 1.034.429 3.951.866 4.867-2.743-.637-6.471-2.035-7.303 3.283 0 .719.342 1.8.627 2.3 1.619 2.865 4.754 1.467 5.215 1.36-.635-.97-2.083-1.462-1.095-2.92 1.076-1.593 5.033.668 1.408 3.58a34 34 0 0 1-2.498 1.853c.39 1.84 1.75 3.683 2.172 5.484-.764-.603-1.167-1.327-1.885-2.093-1.245-1.332-9.662-9.059-19.842-10.888C9.343 15.958 2.57 9.082 2.216 8.993c-.01 2.471 1.504 6.744 2.667 8.64.666 1.084 1.34 2.577 2.001 3.47 1.953 2.627 6.115 5.696 9.188 7.23 2.237 1.117 5.697 2.552 8.395 2.55-.95 1.426-1.637 1.502-2.572 3.269-4.602 8.672 5.965 17 13.128 12.033 1.97-1.366 2.941-4.022 2.941-5.086 0-1.972-1.09-3.206-1.45-4.749q-.324.415-.65.827c-.045.063-.1.158-.143.223-.224.35-.453.788-.682 1.138-2.506 3.812-6.2 1.255-6.2-.724 0-4.07 5.837-6.295 9.478-2.91.6.559 1.537 2.167 1.83 2.91 2.845 7.234-4.15 10.806-5.468 12.77 1.076 2.151 2.906 4.56 4.301 6.642q1.975 2.95 3.952 5.9c.316.408.279.355.379.455 0-2.703.574-5.3-.9-7.442-1.293-1.874-2.125-3.59-2.975-4.828"/></mask><g mask="url(#H)"><path fill="url(#I)" d="M45.97 6.41H2.209v57.171h43.76z"/></g><mask id="J" width="43" height="57" x="2" y="7" maskUnits="userSpaceOnUse" style="mask-type:luminance"><path fill="#fff" d="M39.37 51.356c6.534-9.172 5.383-16.145 1.537-24.81 4.38-1.91 2.533-7.742 2.354-18.03-.037-2.063-.185-1.526-1.177-.6-.764.714-1.414 1.582-1.767 2.817-.294 1.035.43 3.951.867 4.868-2.743-.637-6.471-2.035-7.303 3.282 0 .72.342 1.801.627 2.301 1.618 2.864 4.754 1.467 5.214 1.359-.634-.97-2.082-1.461-1.095-2.92 1.077-1.593 5.034.669 1.409 3.58a34 34 0 0 1-2.498 1.854c.39 1.84 1.75 3.683 2.171 5.483-.763-.602-1.166-1.326-1.885-2.092-1.245-1.333-9.661-9.06-19.841-10.889-8.706-1.558-15.477-8.434-15.83-8.524-.01 2.472 1.504 6.745 2.667 8.64.666 1.085 1.34 2.577 2 3.47 1.954 2.627 6.116 5.7 9.189 7.231 2.237 1.117 5.696 2.551 8.395 2.549-.95 1.427-1.638 1.503-2.572 3.27-4.602 8.671 5.965 17 13.128 12.033 1.97-1.367 2.94-4.023 2.94-5.086 0-1.972-1.09-3.207-1.45-4.75q-.323.416-.65.827c-.045.063-.1.158-.142.224-.224.35-.453.787-.682 1.137-2.506 3.812-6.2 1.256-6.2-.724 0-4.07 5.837-6.294 9.478-2.909.6.558 1.537 2.167 1.83 2.91 2.845 7.233-4.15 10.806-5.469 12.77 1.077 2.15 2.907 4.56 4.302 6.642l3.951 5.9c.316.407.28.355.38.455 0-2.704.573-5.3-.9-7.443-1.293-1.874-2.125-3.59-2.976-4.828"/></mask><g mask="url(#J)"><path fill="url(#K)" d="M45.904 6.453H2.143v57.17h43.76z"/></g><mask id="L" width="42" height="57" x="2" y="7" maskUnits="userSpaceOnUse" style="mask-type:luminance"><path fill="#fff" d="M39.304 51.398c6.534-9.172 5.384-16.146 1.538-24.81 4.38-1.91 2.532-7.742 2.353-18.03-.037-2.063-.184-1.526-1.177-.6-.763.714-1.413 1.582-1.766 2.817-.295 1.035.429 3.951.866 4.868-2.743-.638-6.47-2.035-7.303 3.282 0 .72.343 1.801.627 2.301 1.619 2.864 4.754 1.467 5.215 1.359-.635-.97-2.082-1.461-1.095-2.92 1.076-1.592 5.033.669 1.408 3.58a34 34 0 0 1-2.498 1.854c.39 1.84 1.75 3.683 2.172 5.483-.764-.602-1.166-1.326-1.885-2.093-1.245-1.332-9.662-9.058-19.842-10.888C9.214 16.043 2.44 9.167 2.087 9.077c-.01 2.472 1.504 6.745 2.667 8.64.667 1.085 1.34 2.577 2.001 3.47 1.954 2.627 6.116 5.7 9.188 7.231 2.237 1.117 5.697 2.551 8.395 2.549-.95 1.427-1.637 1.503-2.572 3.27-4.602 8.671 5.965 17 13.129 12.033 1.969-1.367 2.94-4.023 2.94-5.086 0-1.972-1.09-3.207-1.45-4.75q-.324.416-.65.827c-.045.063-.1.158-.143.224-.224.35-.453.787-.682 1.137-2.506 3.812-6.2 1.256-6.2-.724 0-4.07 5.837-6.294 9.478-2.909.6.558 1.537 2.167 1.83 2.91 2.845 7.233-4.15 10.806-5.468 12.77 1.076 2.15 2.906 4.56 4.301 6.642q1.975 2.95 3.952 5.9c.316.407.279.355.379.455 0-2.704.574-5.3-.9-7.443-1.293-1.874-2.125-3.59-2.975-4.828"/></mask><g mask="url(#L)"><path fill="url(#M)" d="M45.84 6.495H2.08v57.17h43.76z"/></g><mask id="N" width="42" height="57" x="2" y="7" maskUnits="userSpaceOnUse" style="mask-type:luminance"><path fill="#fff" d="M39.24 51.44c6.535-9.172 5.384-16.145 1.538-24.81 4.38-1.91 2.533-7.742 2.354-18.03-.037-2.064-.184-1.526-1.177-.6-.763.714-1.414 1.582-1.766 2.817-.295 1.035.429 3.951.866 4.868-2.743-.638-6.471-2.035-7.303 3.282 0 .72.342 1.801.627 2.301 1.619 2.864 4.754 1.467 5.215 1.359-.635-.97-2.083-1.461-1.096-2.92 1.077-1.593 5.034.669 1.409 3.58a34 34 0 0 1-2.498 1.854c.39 1.84 1.75 3.683 2.172 5.483-.764-.602-1.167-1.326-1.885-2.092-1.246-1.333-9.662-9.06-19.842-10.889-8.706-1.56-15.477-8.437-15.83-8.524-.01 2.472 1.504 6.745 2.667 8.64.666 1.085 1.34 2.577 2.001 3.47 1.953 2.627 6.115 5.7 9.188 7.231 2.237 1.117 5.696 2.551 8.395 2.549-.95 1.427-1.638 1.503-2.572 3.27-4.602 8.671 5.965 17 13.128 12.033 1.97-1.367 2.94-4.023 2.94-5.086 0-1.972-1.089-3.207-1.45-4.75q-.322.416-.65.827c-.045.063-.1.158-.142.224-.224.35-.453.787-.682 1.137-2.506 3.812-6.2 1.256-6.2-.724 0-4.07 5.837-6.294 9.478-2.909.6.558 1.537 2.167 1.83 2.91 2.845 7.233-4.15 10.806-5.468 12.77 1.076 2.15 2.906 4.56 4.301 6.642q1.974 2.95 3.952 5.9c.315.407.279.355.379.455 0-2.704.574-5.3-.9-7.443-1.293-1.874-2.125-3.59-2.976-4.828"/></mask><g mask="url(#N)"><path fill="url(#O)" d="M45.775 6.537H2.014v57.17h43.76z"/></g><mask id="P" width="43" height="57" x="1" y="7" maskUnits="userSpaceOnUse" style="mask-type:luminance"><path fill="#fff" d="M39.175 51.482c6.534-9.171 5.384-16.145 1.537-24.809 4.38-1.911 2.533-7.742 2.354-18.03-.037-2.064-.184-1.527-1.177-.6-.763.713-1.414 1.582-1.766 2.817-.295 1.034.429 3.951.866 4.867-2.743-.637-6.471-2.035-7.303 3.283 0 .719.342 1.8.627 2.3 1.619 2.865 4.754 1.467 5.215 1.36-.635-.97-2.083-1.462-1.095-2.92 1.076-1.593 5.033.668 1.408 3.58a34 34 0 0 1-2.498 1.853c.39 1.84 1.75 3.683 2.172 5.484-.764-.603-1.167-1.327-1.885-2.093-1.245-1.332-9.662-9.059-19.842-10.888-8.706-1.561-15.477-8.438-15.83-8.527-.01 2.472 1.504 6.744 2.667 8.64.666 1.085 1.34 2.577 2.001 3.47 1.953 2.627 6.116 5.7 9.188 7.231 2.237 1.116 5.697 2.551 8.395 2.549-.95 1.426-1.638 1.503-2.572 3.27-4.602 8.67 5.965 17 13.128 12.033 1.97-1.367 2.941-4.023 2.941-5.086 0-1.972-1.09-3.207-1.45-4.75q-.324.416-.65.827c-.046.063-.1.158-.143.224-.224.35-.453.787-.682 1.137-2.506 3.812-6.2 1.256-6.2-.724 0-4.07 5.837-6.294 9.478-2.909.6.558 1.537 2.167 1.83 2.91 2.845 7.233-4.15 10.806-5.468 12.77 1.076 2.15 2.906 4.56 4.301 6.642q1.974 2.95 3.952 5.9c.316.407.279.355.379.455 0-2.704.574-5.3-.9-7.443-1.293-1.874-2.125-3.59-2.975-4.828"/></mask><g mask="url(#P)"><path fill="url(#Q)" d="M45.709 6.576H1.948v57.171h43.76z"/></g><mask id="R" width="43" height="57" x="1" y="7" maskUnits="userSpaceOnUse" style="mask-type:luminance"><path fill="#fff" d="M39.112 51.522c6.534-9.172 5.383-16.146 1.537-24.81 4.38-1.91 2.533-7.742 2.354-18.03-.037-2.064-.185-1.527-1.177-.6-.764.713-1.414 1.582-1.767 2.817-.294 1.034.43 3.951.867 4.867-2.744-.637-6.471-2.035-7.303 3.283 0 .719.342 1.8.626 2.3 1.62 2.865 4.755 1.467 5.215 1.36-.634-.97-2.082-1.462-1.095-2.92 1.077-1.593 5.034.668 1.409 3.58a34 34 0 0 1-2.498 1.853c.39 1.84 1.75 3.683 2.171 5.484-.763-.603-1.166-1.327-1.885-2.093-1.245-1.332-9.661-9.059-19.841-10.888C9.019 16.166 2.248 9.29 1.895 9.2c-.01 2.471 1.504 6.744 2.667 8.64.666 1.084 1.34 2.577 2 3.47 1.954 2.627 6.116 5.696 9.188 7.23 2.238 1.117 5.697 2.552 8.396 2.55-.95 1.426-1.638 1.502-2.572 3.269-4.602 8.672 5.965 17 13.128 12.033 1.97-1.366 2.94-4.022 2.94-5.086 0-1.972-1.09-3.206-1.45-4.749q-.323.415-.65.827c-.045.063-.1.158-.142.224-.224.35-.453.787-.682 1.137-2.506 3.812-6.2 1.255-6.2-.724 0-4.07 5.837-6.295 9.478-2.91.6.559 1.537 2.167 1.83 2.91 2.845 7.234-4.15 10.806-5.469 12.77 1.077 2.151 2.907 4.56 4.302 6.642q1.974 2.95 3.951 5.9c.316.408.28.355.38.455 0-2.703.573-5.3-.9-7.442-1.293-1.874-2.125-3.59-2.976-4.828"/></mask><g mask="url(#R)"><path fill="url(#S)" d="M45.646 6.618H1.885V63.79h43.76z"/></g><mask id="T" width="43" height="57" x="1" y="7" maskUnits="userSpaceOnUse" style="mask-type:luminance"><path fill="#fff" d="M39.046 51.564c6.534-9.172 5.384-16.145 1.538-24.81 4.38-1.91 2.532-7.742 2.353-18.03-.037-2.063-.184-1.526-1.177-.6-.763.714-1.413 1.582-1.766 2.817-.295 1.035.429 3.951.866 4.868-2.743-.637-6.47-2.035-7.303 3.282 0 .72.342 1.801.627 2.301 1.619 2.864 4.754 1.467 5.215 1.359-.635-.97-2.083-1.461-1.095-2.92 1.076-1.593 5.033.669 1.408 3.58a34 34 0 0 1-2.498 1.854c.39 1.84 1.75 3.683 2.172 5.483-.764-.603-1.167-1.326-1.885-2.093-1.245-1.332-9.662-9.058-19.842-10.888C8.953 16.21 2.182 9.333 1.83 9.243c-.01 2.472 1.504 6.745 2.667 8.64.666 1.085 1.34 2.577 2.001 3.47 1.954 2.627 6.116 5.7 9.188 7.231 2.237 1.117 5.697 2.551 8.395 2.549-.95 1.427-1.637 1.503-2.572 3.27-4.602 8.671 5.965 17 13.128 12.033 1.97-1.367 2.941-4.023 2.941-5.086 0-1.972-1.09-3.207-1.45-4.75q-.324.416-.65.827c-.045.063-.1.158-.143.224-.224.35-.453.787-.682 1.137-2.506 3.812-6.2 1.256-6.2-.724 0-4.07 5.837-6.294 9.478-2.909.6.558 1.537 2.167 1.83 2.91 2.845 7.233-4.15 10.806-5.468 12.77 1.076 2.15 2.906 4.56 4.301 6.642q1.974 2.95 3.952 5.9c.316.407.279.355.379.455 0-2.704.574-5.3-.9-7.443-1.293-1.874-2.125-3.59-2.975-4.828"/></mask><g mask="url(#T)"><path fill="url(#U)" d="M45.58 6.66H1.82v57.172h43.76z"/></g><mask id="V" width="43" height="57" x="1" y="7" maskUnits="userSpaceOnUse" style="mask-type:luminance"><path fill="#fff" d="M38.983 51.606c6.534-9.172 5.383-16.145 1.537-24.81 4.38-1.91 2.533-7.742 2.354-18.03-.037-2.063-.184-1.526-1.177-.6-.764.714-1.414 1.582-1.767 2.817-.294 1.035.43 3.951.867 4.868-2.743-.637-6.471-2.035-7.303 3.282 0 .72.342 1.801.627 2.301 1.618 2.864 4.754 1.467 5.215 1.359-.635-.97-2.083-1.461-1.096-2.92 1.077-1.593 5.034.669 1.409 3.58a34 34 0 0 1-2.498 1.854c.39 1.84 1.75 3.683 2.171 5.483-.763-.602-1.166-1.326-1.885-2.092-1.245-1.333-9.661-9.06-19.841-10.889C8.89 16.251 2.119 9.375 1.766 9.285c-.01 2.472 1.504 6.745 2.667 8.64.666 1.085 1.34 2.577 2 3.47 1.954 2.627 6.116 5.697 9.189 7.231 2.237 1.117 5.696 2.551 8.395 2.549-.95 1.427-1.638 1.503-2.572 3.27-4.602 8.671 5.965 17 13.128 12.033 1.97-1.367 2.94-4.023 2.94-5.086 0-1.972-1.089-3.207-1.45-4.75q-.323.416-.65.827c-.045.063-.1.158-.142.224-.224.35-.453.787-.682 1.137-2.506 3.812-6.2 1.256-6.2-.724 0-4.07 5.837-6.294 9.478-2.909.6.558 1.537 2.167 1.83 2.91 2.845 7.233-4.15 10.806-5.469 12.77 1.077 2.15 2.907 4.56 4.302 6.642l3.951 5.9c.316.407.28.355.38.455 0-2.704.574-5.3-.9-7.443-1.293-1.874-2.125-3.59-2.975-4.828"/></mask><g mask="url(#V)"><path fill="url(#W)" d="M45.517 6.703H1.756v57.17h43.76z"/></g><mask id="X" width="43" height="57" x="1" y="7" maskUnits="userSpaceOnUse" style="mask-type:luminance"><path fill="#fff" d="M38.917 51.648c6.534-9.172 5.384-16.146 1.538-24.81 4.38-1.91 2.532-7.742 2.353-18.03-.037-2.063-.184-1.526-1.177-.6-.763.714-1.413 1.582-1.766 2.817-.295 1.035.429 3.951.866 4.868-2.743-.638-6.47-2.035-7.303 3.282 0 .72.343 1.801.627 2.301 1.619 2.864 4.754 1.467 5.215 1.359-.635-.97-2.082-1.461-1.095-2.92 1.077-1.592 5.033.669 1.408 3.58a34 34 0 0 1-2.498 1.854c.39 1.84 1.75 3.683 2.172 5.483-.764-.602-1.166-1.326-1.885-2.093-1.245-1.332-9.662-9.058-19.842-10.888C8.824 16.293 2.053 9.417 1.7 9.327c-.01 2.472 1.504 6.745 2.668 8.64.666 1.085 1.34 2.577 2 3.47 1.954 2.627 6.116 5.7 9.188 7.231 2.238 1.117 5.697 2.551 8.395 2.549-.95 1.427-1.637 1.503-2.572 3.27-4.602 8.671 5.965 17 13.129 12.033 1.969-1.367 2.94-4.023 2.94-5.086 0-1.972-1.09-3.207-1.45-4.75q-.324.416-.65.827c-.045.063-.1.158-.143.224-.224.35-.453.787-.682 1.137-2.506 3.812-6.2 1.256-6.2-.724 0-4.07 5.837-6.294 9.478-2.909.6.558 1.537 2.167 1.83 2.91 2.845 7.233-4.15 10.806-5.468 12.77 1.077 2.15 2.906 4.56 4.301 6.642q1.975 2.95 3.952 5.9c.316.407.279.355.379.455 0-2.704.574-5.3-.9-7.443-1.293-1.874-2.125-3.59-2.975-4.828"/></mask><g mask="url(#X)"><path fill="url(#Y)" d="M45.451 6.745H1.691v57.17h43.76z"/></g><mask id="Z" width="43" height="57" x="1" y="7" maskUnits="userSpaceOnUse" style="mask-type:luminance"><path fill="#fff" d="M38.851 51.69c6.534-9.172 5.384-16.145 1.538-24.81 4.38-1.91 2.532-7.742 2.353-18.03-.037-2.064-.184-1.526-1.177-.6-.763.714-1.413 1.582-1.766 2.817-.295 1.035.43 3.951.866 4.868-2.743-.638-6.47-2.035-7.303 3.282 0 .72.343 1.801.627 2.301 1.619 2.864 4.754 1.467 5.215 1.359-.635-.97-2.082-1.461-1.095-2.92 1.077-1.593 5.033.669 1.408 3.58a34 34 0 0 1-2.498 1.854c.39 1.84 1.75 3.683 2.172 5.483-.764-.602-1.166-1.326-1.885-2.092-1.245-1.333-9.662-9.06-19.842-10.889C8.761 16.335 1.99 9.46 1.634 9.37c-.01 2.472 1.504 6.745 2.668 8.64.666 1.085 1.34 2.577 2 3.47 1.954 2.627 6.116 5.697 9.188 7.231 2.238 1.117 5.697 2.551 8.395 2.549-.95 1.427-1.637 1.503-2.572 3.27-4.601 8.671 5.966 17 13.129 12.033 1.969-1.367 2.94-4.023 2.94-5.086 0-1.972-1.09-3.207-1.45-4.75a97 97 0 0 1-.65.827c-.045.063-.1.158-.143.224-.223.35-.453.787-.681 1.137-2.507 3.812-6.2 1.256-6.2-.724 0-4.07 5.836-6.294 9.477-2.909.6.558 1.537 2.167 1.83 2.91 2.845 7.233-4.15 10.806-5.468 12.77 1.076 2.15 2.906 4.56 4.301 6.642q1.975 2.95 3.952 5.9c.316.407.279.355.379.455 0-2.704.574-5.3-.9-7.443-1.293-1.874-2.125-3.59-2.975-4.828"/></mask><g mask="url(#Z)"><path fill="url(#aa)" d="M45.388 6.787H1.627v57.17h43.76z"/></g><mask id="ab" width="43" height="57" x="1" y="7" maskUnits="userSpaceOnUse" style="mask-type:luminance"><path fill="#fff" d="M38.788 51.732c6.534-9.171 5.384-16.145 1.537-24.809 4.381-1.911 2.533-7.742 2.354-18.03-.037-2.064-.184-1.527-1.177-.6-.763.713-1.413 1.582-1.766 2.817-.295 1.034.429 3.951.866 4.867-2.743-.637-6.471-2.035-7.303 3.283 0 .719.342 1.8.627 2.3 1.619 2.865 4.754 1.467 5.215 1.36-.635-.97-2.083-1.462-1.095-2.92 1.076-1.593 5.033.668 1.408 3.58a34 34 0 0 1-2.498 1.853c.39 1.84 1.75 3.683 2.172 5.484-.764-.603-1.167-1.327-1.885-2.093-1.245-1.332-9.662-9.059-19.842-10.888-8.706-1.559-15.477-8.438-15.83-8.524-.01 2.471 1.504 6.744 2.667 8.64.666 1.084 1.34 2.577 2.001 3.47 1.953 2.627 6.116 5.699 9.188 7.23 2.237 1.117 5.697 2.552 8.395 2.55-.95 1.426-1.637 1.502-2.572 3.269-4.602 8.672 5.965 17 13.129 12.033 1.969-1.366 2.94-4.022 2.94-5.086 0-1.972-1.09-3.206-1.45-4.749l-.65.827c-.046.063-.1.158-.143.223-.224.35-.453.787-.682 1.138-2.506 3.812-6.2 1.255-6.2-.724 0-4.07 5.837-6.295 9.478-2.91.6.559 1.537 2.167 1.83 2.91 2.845 7.234-4.15 10.806-5.468 12.77 1.076 2.151 2.906 4.56 4.301 6.642l3.952 5.9c.316.408.279.355.379.455 0-2.703.574-5.3-.9-7.442-1.293-1.874-2.125-3.59-2.975-4.828"/></mask><g mask="url(#ab)"><path fill="url(#ac)" d="M45.322 6.83H1.561V64h43.761z"/></g><mask id="ad" width="45" height="62" x="0" y="0" maskUnits="userSpaceOnUse" style="mask-type:luminance"><path fill="#fff" d="M39.823 48.044c6.992-9.814 5.76-17.274 1.645-26.546 4.689-2.046 2.709-8.285 2.517-19.292-.04-2.208-.198-1.634-1.261-.642-.816.763-1.511 1.693-1.89 3.014-.316 1.106.458 4.228.926 5.21-2.935-.682-6.923-2.177-7.813 3.512 0 .769.366 1.927.671 2.464 1.732 3.064 5.089 1.569 5.578 1.456-.679-1.037-2.227-1.561-1.17-3.122 1.15-1.704 5.385.713 1.505 3.83a35 35 0 0 1-2.672 1.982c.416 1.97 1.874 3.941 2.322 5.866-.816-.645-1.248-1.42-2.017-2.238-1.332-1.424-10.335-9.69-21.229-11.65C7.627 10.219.382 2.86.003 2.765 0 3.5.12 4.381.327 5.315c.534 2.435 1.63 5.229 2.527 6.695.71 1.16 1.432 2.759 2.143 3.712 2.087 2.809 6.544 6.097 9.83 7.737 2.393 1.195 6.094 2.73 8.982 2.725-1.016 1.526-1.75 1.608-2.754 3.498-4.925 9.28 6.384 18.191 14.048 12.876 2.106-1.461 3.145-4.301 3.145-5.441 0-2.11-1.166-3.43-1.55-5.081l-.695.884c-.047.069-.105.169-.15.24-.24.374-.485.842-.73 1.216-2.68 4.078-6.633 1.343-6.633-.774 0-4.357 6.244-6.734 10.14-3.114.642.597 1.645 2.32 1.959 3.111 3.046 7.743-4.439 11.563-5.852 13.666 1.153 2.301 3.109 4.878 4.601 7.105l4.228 6.313c.337.437.298.38.406.487 0-2.893.616-5.67-.964-7.96-1.382-2.007-2.272-3.842-3.183-5.166"/></mask><g mask="url(#ad)"><path fill="url(#ae)" d="M46.815 0H0v61.173h46.815z"/></g></g><defs><linearGradient id="c" x1="73.554" x2="80.646" y1="34.708" y2="59.504" gradientUnits="userSpaceOnUse"><stop stop-color="#533D8D"/><stop offset="1" stop-color="#DC258E"/></linearGradient><linearGradient id="e" x1="7.253" x2="42.263" y1="16.33" y2="51.803" gradientUnits="userSpaceOnUse"><stop stop-color="#68499C"/><stop offset=".56" stop-color="#684A9D"/><stop offset="1" stop-color="#624A9D"/></linearGradient><linearGradient id="g" x1="7.187" x2="42.2" y1="16.372" y2="51.846" gradientUnits="userSpaceOnUse"><stop stop-color="#6E499C"/><stop offset=".56" stop-color="#6E499C"/><stop offset="1" stop-color="#624B9E"/></linearGradient><linearGradient id="i" x1="7.124" x2="42.134" y1="16.414" y2="51.885" gradientUnits="userSpaceOnUse"><stop stop-color="#73489B"/><stop offset=".56" stop-color="#74489C"/><stop offset="1" stop-color="#614B9E"/></linearGradient><linearGradient id="k" x1="7.058" x2="42.071" y1="16.453" y2="51.927" gradientUnits="userSpaceOnUse"><stop stop-color="#79479B"/><stop offset=".56" stop-color="#79489B"/><stop offset="1" stop-color="#614B9E"/></linearGradient><linearGradient id="m" x1="6.995" x2="42.005" y1="16.495" y2="51.969" gradientUnits="userSpaceOnUse"><stop stop-color="#7D469A"/><stop offset=".56" stop-color="#7E479B"/><stop offset="1" stop-color="#614C9E"/></linearGradient><linearGradient id="o" x1="6.929" x2="41.942" y1="16.538" y2="52.011" gradientUnits="userSpaceOnUse"><stop stop-color="#81459A"/><stop offset=".56" stop-color="#82469A"/><stop offset="1" stop-color="#614C9E"/></linearGradient><linearGradient id="q" x1="6.863" x2="41.876" y1="16.58" y2="52.054" gradientUnits="userSpaceOnUse"><stop stop-color="#864399"/><stop offset=".56" stop-color="#88469A"/><stop offset="1" stop-color="#614C9E"/></linearGradient><linearGradient id="s" x1="6.8" x2="41.813" y1="16.622" y2="52.096" gradientUnits="userSpaceOnUse"><stop stop-color="#8B4298"/><stop offset=".56" stop-color="#8D4499"/><stop offset="1" stop-color="#604C9E"/></linearGradient><linearGradient id="u" x1="6.734" x2="41.747" y1="16.664" y2="52.138" gradientUnits="userSpaceOnUse"><stop stop-color="#904198"/><stop offset=".56" stop-color="#924499"/><stop offset="1" stop-color="#604C9E"/></linearGradient><linearGradient id="w" x1="6.671" x2="41.681" y1="16.706" y2="52.18" gradientUnits="userSpaceOnUse"><stop stop-color="#953F97"/><stop offset=".56" stop-color="#974398"/><stop offset="1" stop-color="#604C9E"/></linearGradient><linearGradient id="y" x1="6.605" x2="41.618" y1="16.749" y2="52.22" gradientUnits="userSpaceOnUse"><stop stop-color="#9A3F96"/><stop offset=".56" stop-color="#9D4298"/><stop offset="1" stop-color="#604C9E"/></linearGradient><linearGradient id="A" x1="6.542" x2="41.552" y1="16.788" y2="52.262" gradientUnits="userSpaceOnUse"><stop stop-color="#9F3D95"/><stop offset=".56" stop-color="#A14197"/><stop offset="1" stop-color="#604D9F"/></linearGradient><linearGradient id="C" x1="6.476" x2="41.489" y1="16.83" y2="52.303" gradientUnits="userSpaceOnUse"><stop stop-color="#A33B94"/><stop offset=".56" stop-color="#A63F96"/><stop offset="1" stop-color="#5F4D9F"/></linearGradient><linearGradient id="E" x1="6.413" x2="41.423" y1="16.872" y2="52.346" gradientUnits="userSpaceOnUse"><stop stop-color="#A83993"/><stop offset=".56" stop-color="#AB3E96"/><stop offset="1" stop-color="#5F4D9F"/></linearGradient><linearGradient id="G" x1="6.347" x2="41.36" y1="16.914" y2="52.388" gradientUnits="userSpaceOnUse"><stop stop-color="#AD3792"/><stop offset=".56" stop-color="#B03D95"/><stop offset="1" stop-color="#5F4D9F"/></linearGradient><linearGradient id="I" x1="6.284" x2="41.294" y1="16.956" y2="52.43" gradientUnits="userSpaceOnUse"><stop stop-color="#B23592"/><stop offset=".56" stop-color="#B63C95"/><stop offset="1" stop-color="#5F4D9F"/></linearGradient><linearGradient id="K" x1="6.218" x2="41.231" y1="16.999" y2="52.472" gradientUnits="userSpaceOnUse"><stop stop-color="#B73291"/><stop offset=".56" stop-color="#BB3A94"/><stop offset="1" stop-color="#5F4D9F"/></linearGradient><linearGradient id="M" x1="6.155" x2="41.165" y1="17.041" y2="52.512" gradientUnits="userSpaceOnUse"><stop stop-color="#BC3090"/><stop offset=".56" stop-color="#C03994"/><stop offset="1" stop-color="#5F4E9F"/></linearGradient><linearGradient id="O" x1="6.089" x2="41.102" y1="17.08" y2="52.554" gradientUnits="userSpaceOnUse"><stop stop-color="#C12D8F"/><stop offset=".56" stop-color="#C53693"/><stop offset="1" stop-color="#5E4E9F"/></linearGradient><linearGradient id="Q" x1="6.026" x2="41.036" y1="17.122" y2="52.596" gradientUnits="userSpaceOnUse"><stop stop-color="#C6298E"/><stop offset=".56" stop-color="#CB3492"/><stop offset="1" stop-color="#5E4E9F"/></linearGradient><linearGradient id="S" x1="5.96" x2="40.973" y1="17.164" y2="52.638" gradientUnits="userSpaceOnUse"><stop stop-color="#CB268E"/><stop offset=".56" stop-color="#D03292"/><stop offset="1" stop-color="#5E4E9F"/></linearGradient><linearGradient id="U" x1="5.897" x2="40.907" y1="17.207" y2="52.68" gradientUnits="userSpaceOnUse"><stop stop-color="#CF228D"/><stop offset=".56" stop-color="#D53091"/><stop offset="1" stop-color="#5E4FA0"/></linearGradient><linearGradient id="W" x1="5.831" x2="40.844" y1="17.249" y2="52.722" gradientUnits="userSpaceOnUse"><stop stop-color="#D41E8C"/><stop offset=".56" stop-color="#DA2E91"/><stop offset="1" stop-color="#5E4FA0"/></linearGradient><linearGradient id="Y" x1="5.768" x2="40.778" y1="17.291" y2="52.764" gradientUnits="userSpaceOnUse"><stop stop-color="#D9178C"/><stop offset=".56" stop-color="#DF2A90"/><stop offset="1" stop-color="#5D4FA0"/></linearGradient><linearGradient id="aa" x1="5.702" x2="40.715" y1="17.333" y2="52.806" gradientUnits="userSpaceOnUse"><stop stop-color="#DE138B"/><stop offset=".56" stop-color="#E5278F"/><stop offset="1" stop-color="#5C4FA0"/></linearGradient><linearGradient id="ac" x1="5.639" x2="40.649" y1="17.372" y2="52.846" gradientUnits="userSpaceOnUse"><stop stop-color="#E3088A"/><stop offset=".56" stop-color="#EC248F"/><stop offset="1" stop-color="#5C4FA0"/></linearGradient><linearGradient id="ae" x1="0" x2="44.811" y1="30.585" y2="30.585" gradientUnits="userSpaceOnUse"><stop stop-color="#E2038B"/><stop offset="1" stop-color="#fff"/></linearGradient><clipPath id="a"><path fill="#fff" d="M0 0h104.823v64H0z"/></clipPath></defs></svg>