<svg xmlns="http://www.w3.org/2000/svg" width="50" height="52" fill="none"><g clip-path="url(#a)"><path fill="#F7D161" fill-rule="evenodd" d="m.24 16.613 4.4 14.334c20.107 5.306 30 3.373 44.294-6.2-15.96 7-33.734 2.266-48.694-8.134" clip-rule="evenodd"/><path fill="#BB4F3B" fill-rule="evenodd" d="M24.587 1.267c6.866 0 12.427 5.56 12.427 12.426 0 6.854-5.56 12.427-12.427 12.427S12.16 20.56 12.16 13.693c0-6.866 5.56-12.426 12.427-12.426" clip-rule="evenodd"/><path fill="#F7D161" fill-rule="evenodd" d="M25.427 4.893 18.72 5.6c-4 7.76-3.64 11.6.307 17.187-2.547-6.214.146-12.16 6.4-17.894" clip-rule="evenodd"/><path fill="#000" d="M.36 38.867h1.627v1.986l1.707-1.986h2.16l-1.92 1.986 2 3.28h-2l-1.107-2.16-.84.88v1.28H.36zm6.094 0h2.133l.827 3.2.826-3.2h2.134v5.253H11.04v-4.013l-1.026 4.013h-1.2l-1.027-4.013v4.013H6.454zm6.96 0h4.026V40h-2.4v.92h2.04v1.067h-2.04v2.146h-1.626zm4.506 2.773h2.12v1.133h-2.12zm8.347 3.627H24.96V44.12H21.6v1.147h-1.306v-2.36h.546c.307-.854.454-1.8.454-2.867v-1.173h4.4v4.04h.573zm-2.2-2.347v-2.76H22.76v.067c0 .733-.12 1.626-.373 2.693zm2.827-4.053h4.346v1.12h-2.72v.84h2.52v1.066h-2.52v1.04h2.8v1.187h-4.426zm5.293 0h2.133l.827 3.2.827-3.2h2.133v5.253h-1.333v-4.013l-1.027 4.013h-1.2l-1.027-4.013v4.013h-1.333zm6.947 0h4.346v1.12h-2.72v.84h2.534v1.066H40.76v1.04h2.8v1.187h-4.426zm4.813 0h1.76l.733 2.16.72-2.16h1.654l-1.734 4.066a5 5 0 0 1-.373.734 1.26 1.26 0 0 1-.467.4c-.2.106-.493.16-.853.16-.187 0-.52-.027-.987-.08v-1.094q.42.04.6.04c.374 0 .6-.133.68-.413zM44.107 50.8v-1.147h-.64c-.027.56-.107.934-.267 1.147zm.306.427h-1.52v.533h-.426v-.96h.213c.093-.107.16-.253.227-.48.053-.213.093-.587.106-1.107h1.627V50.8h.213v.973h-.44zm-4.04-2.014h.534v.734h.76v-.734h.533v2.014h-.533v-.84h-.76v.84h-.534zm-1.92 1.014c0 .2.054.346.147.453s.213.16.347.16a.45.45 0 0 0 .346-.16c.094-.107.147-.267.147-.467s-.053-.346-.147-.453a.45.45 0 0 0-.346-.16.45.45 0 0 0-.347.16c-.107.107-.147.267-.147.467m-.546-.027c0-.173.04-.347.133-.52a.9.9 0 0 1 .373-.373c.16-.094.334-.134.534-.134.306 0 .56.094.746.294.2.2.294.453.294.746 0 .307-.094.56-.294.76s-.44.307-.746.307c-.187 0-.36-.04-.534-.12a.8.8 0 0 1-.386-.373c-.08-.16-.12-.36-.12-.587m-2.094.24V49.2c-.24 0-.413.053-.506.16q-.16.16-.16.48c0 .4.226.6.666.6m.547 0a.8.8 0 0 0 .373-.08.5.5 0 0 0 .227-.2c.04-.08.067-.2.067-.36 0-.4-.227-.6-.667-.6zm0 .467v.32h-.547v-.32c-.44-.014-.76-.12-.946-.334a1.07 1.07 0 0 1-.28-.76c0-.32.093-.573.28-.773.186-.2.506-.293.933-.32v-.28h.547v.28c.44.013.76.12.933.32q.28.3.28.76t-.28.76c-.16.227-.467.333-.92.347M32.507 48.4h.253a.57.57 0 0 1-.187.4.6.6 0 0 1-.413.147.6.6 0 0 1-.413-.147c-.107-.093-.16-.227-.187-.4h.267c.013.093.04.16.093.2s.133.067.24.067a.4.4 0 0 0 .24-.067c.067-.04.093-.107.107-.2m-1.28.813h.506v1.267l.814-1.267h.52v2.014h-.507v-1.294l-.827 1.294h-.506zm-1.054 0h.534v2.014h-.534zm-1.706 1.68h.493c.133 0 .227-.026.28-.066a.24.24 0 0 0 .093-.2q0-.14-.12-.2c-.08-.04-.213-.054-.4-.054h-.346zm-.534-1.68h.534v.84H29q.32 0 .48.04t.28.2c.08.094.12.214.12.347q0 .3-.2.44c-.133.093-.333.147-.6.147h-1.133v-2.014zm-2.373 0h.533v.734h.76v-.734h.534v2.014h-.534v-.84h-.76v.84h-.533zm-1.827 1.68h.427c.147 0 .267-.013.333-.053a.22.22 0 0 0 .107-.2q0-.14-.12-.2c-.08-.04-.24-.053-.467-.053h-.266v.506zm0-.84h.347c.16 0 .28-.026.36-.066s.107-.107.107-.2c0-.08-.04-.147-.107-.187s-.187-.053-.373-.053h-.347v.506zm-.533-.84h1.173c.24 0 .414.04.534.134.12.093.173.213.173.4a.45.45 0 0 1-.093.293.6.6 0 0 1-.24.173c.133.04.24.094.306.187.067.093.107.2.107.307a.48.48 0 0 1-.173.386c-.12.094-.28.147-.507.147h-1.267v-2.027zm-2.413 0h.506v1.267l.814-1.267h.52v2.014h-.507v-1.294l-.827 1.294h-.506zm-2.12 0h1.826v.427h-.653v1.587h-.533V49.64h-.64zm-.814 1.054a2 2 0 0 1-.32.08c-.146.026-.24.066-.293.093-.067.053-.107.107-.107.187s.027.133.08.2c.054.053.12.08.214.08a.47.47 0 0 0 .28-.094.4.4 0 0 0 .133-.173 1 1 0 0 0 .027-.253v-.12zm-.72-.44-.48-.094a.7.7 0 0 1 .28-.426c.134-.094.334-.147.587-.147.24 0 .413.027.533.08s.2.133.24.213c.054.094.067.24.067.48v.627c0 .173.013.307.027.387.013.08.053.173.093.266h-.533c-.014-.04-.027-.093-.054-.16-.013-.026-.013-.053-.013-.066a.8.8 0 0 1-.293.2.9.9 0 0 1-.334.066c-.213 0-.373-.053-.493-.173a.54.54 0 0 1-.173-.427c0-.12.026-.213.08-.306a.47.47 0 0 1 .226-.2c.094-.054.24-.094.427-.12a2.3 2.3 0 0 0 .52-.134v-.026c0-.107-.027-.174-.08-.214s-.147-.066-.28-.066c-.093 0-.173.013-.227.053-.04.027-.08.093-.12.187m-2.253.36c0 .226.04.4.133.506.094.107.2.16.334.16.12 0 .226-.053.306-.146.08-.094.12-.267.12-.494 0-.213-.04-.373-.133-.466-.08-.107-.187-.147-.32-.147a.4.4 0 0 0-.32.147c-.08.093-.12.253-.12.44m-.533-.974h.493v.294a.7.7 0 0 1 .267-.254.66.66 0 0 1 .36-.093c.24 0 .426.093.6.28.16.187.24.44.24.773 0 .334-.08.6-.24.787a.76.76 0 0 1-.6.28.8.8 0 0 1-.307-.067.8.8 0 0 1-.28-.226V52h-.533zm-1.934 1.014c0 .2.054.346.147.453s.213.16.347.16a.45.45 0 0 0 .346-.16c.094-.107.147-.267.147-.467s-.053-.346-.147-.453a.45.45 0 0 0-.346-.16.45.45 0 0 0-.347.16c-.093.107-.147.267-.147.467m-.546-.027c0-.173.04-.347.133-.52a.9.9 0 0 1 .373-.373c.16-.094.334-.134.534-.134.306 0 .56.094.746.294.2.2.294.453.294.746 0 .307-.094.56-.294.76s-.44.307-.746.307c-.187 0-.36-.04-.534-.12a.8.8 0 0 1-.386-.373c-.08-.16-.12-.36-.12-.587m-2.24-.987h1.786v2.014h-.533V49.64h-.72v1.587h-.533zm-1.84.974c0 .226.04.4.133.506.093.107.2.16.333.16.12 0 .227-.053.307-.146.08-.094.12-.267.12-.494 0-.213-.04-.373-.133-.466-.08-.107-.187-.147-.32-.147a.4.4 0 0 0-.32.147c-.08.093-.12.253-.12.44m-.534-.974h.494v.294a.7.7 0 0 1 .266-.254.7.7 0 0 1 .374-.093c.24 0 .426.093.6.28.16.187.24.44.24.773 0 .334-.08.6-.24.787a.76.76 0 0 1-.6.28.8.8 0 0 1-.307-.067.8.8 0 0 1-.28-.226V52h-.533v-2.787zM5.32 50.227c0 .2.053.346.147.453.093.107.213.16.346.16a.45.45 0 0 0 .347-.16c.093-.107.147-.267.147-.467s-.054-.346-.147-.453a.45.45 0 0 0-.347-.16.45.45 0 0 0-.346.16c-.094.107-.147.267-.147.467m-.547-.027c0-.173.04-.347.134-.52a.9.9 0 0 1 .373-.373c.16-.094.333-.134.533-.134.307 0 .56.094.747.294.2.2.293.453.293.746 0 .307-.093.56-.293.76s-.44.307-.747.307c-.186 0-.36-.04-.533-.12a.8.8 0 0 1-.387-.373c-.08-.16-.12-.36-.12-.587m-2.24-1.747h.56v1.187c.12-.013.214-.04.254-.093.04-.054.106-.2.2-.427.12-.307.24-.493.346-.56.12-.08.307-.107.56-.107h.08v.414h-.08c-.12 0-.2.013-.253.04a.3.3 0 0 0-.133.133c-.027.053-.08.173-.147.36-.04.093-.067.173-.107.24a.6.6 0 0 1-.213.187c.12.04.227.106.307.213s.173.253.266.453l.374.76h-.654l-.333-.72c0-.013-.013-.026-.027-.053 0-.013-.026-.053-.066-.133-.067-.134-.134-.227-.174-.254-.04-.04-.12-.053-.213-.053v1.213h-.56v-2.8z"/></g><defs><clipPath id="a"><path fill="#fff" d="M.24 0H50v52H.24z"/></clipPath></defs></svg>